<?xml version="1.0" encoding="utf-8"?>
<!-- Generator: Adobe Illustrator 25.2.0, SVG Export Plug-In . SVG Version: 6.00 Build 0)  -->
<svg version="1.1" id="b42fa47e-1c96-4065-899a-c733dc223382"
	 xmlns="http://www.w3.org/2000/svg" xmlns:xlink="http://www.w3.org/1999/xlink" x="0px" y="0px" viewBox="0 0 690 448.8"
	 style="enable-background:new 0 0 690 448.8;" xml:space="preserve">
<style type="text/css">
	.st0{fill:#F2F2F2;}
	.st1{fill:#FFFFFF;}
	.st2{fill:#E6E6E6;}
	.st3{fill:#3F3D56;}
	.st4{fill:#D0D0D0;}
	.st5{fill:#CCCCCC;}
</style>
<path class="st0" d="M211.8,420.1c4.7-10.1,9.3-20.3,11.4-31.2s1.2-22.8-4.6-32.3s-17.2-15.9-28.1-13.8c-9,1.8-16.1,8.8-20.4,16.9
	s-5.9,17.2-7.5,26.2c-0.5-10.2-1.1-20.6-4.5-30.2s-10.1-18.6-19.6-22.3s-21.9-0.8-26.9,8.1c-7.1,12.5,2.3,30.1-5.8,42
	c-1.4-11.9-13.9-21.3-25.7-19.4s-20.7,14.8-18.3,26.5c1.4,7,6.2,12.9,11.9,17.2s12.3,9.3,18.9,12.1L211.8,420.1z"/>
<path class="st1" d="M68,372.5c9.4,3.3,18.9,6.6,27.5,11.8c7.7,4.6,14.6,10.8,18.9,18.8c2.4,4.3,3.8,9,4.1,13.9c0.1,1,1.7,1,1.6,0
	c-0.6-9.1-5-17.4-11.1-23.9c-6.7-7.2-15.4-12.1-24.4-15.9c-5.3-2.3-10.8-4.2-16.2-6.1C67.5,370.7,67.1,372.2,68,372.5L68,372.5z"/>
<path class="st1" d="M122.3,335c5.8,9.6,10.4,19.9,13.8,30.6c3.4,10.7,5.5,21.8,6.4,33c0.5,6.3,0.5,12.6,0.2,18.8
	c-0.1,1,1.5,1,1.6,0c0.6-11.3,0-22.7-2-33.8c-2-11.2-5.3-22-9.8-32.4c-2.5-5.8-5.4-11.5-8.7-17c-0.2-0.4-0.7-0.5-1.1-0.2
	C122.2,334.2,122.1,334.6,122.3,335L122.3,335z"/>
<path class="st1" d="M200.2,344.1c-8.2,18.4-13.9,37.7-17.1,57.6c-0.9,5.6-1.6,11.2-2.1,16.8c-0.1,1,1.5,1,1.6,0
	c1.7-19.8,6-39.3,12.7-58c1.9-5.3,4-10.4,6.2-15.6C202,344,200.6,343.2,200.2,344.1z"/>
<rect x="435.8" y="432.2" transform="matrix(0.9999 -1.293741e-02 1.293741e-02 0.9999 -5.6172 5.9764)" class="st2" width="46.6" height="9.9"/>
<path class="st2" d="M499,444l-6.7,0l-4.1-7.3l4.4-7.3l6.2,0c-4.1-5.2-11.6-6.1-16.8-2c-5.2,4.1-6.1,11.6-2,16.8
	c4.1,5.2,11.6,6.1,16.8,2C497.7,445.6,498.4,444.8,499,444L499,444z"/>
<path class="st2" d="M419.2,444l6.7,0l4.1-7.3l-4.4-7.3l-6.2,0c4.1-5.2,11.6-6.1,16.8-2c5.2,4.1,6.1,11.6,2,16.8
	c-4.1,5.2-11.6,6.1-16.8,2C420.6,445.6,419.8,444.8,419.2,444L419.2,444z"/>
<path class="st3" d="M689,421H1c-0.6,0-1-0.4-1-1s0.4-1,1-1h688c0.6,0,1,0.4,1,1S689.6,421,689,421z"/>
<rect x="547.9" y="317.7" transform="matrix(0.6979 -0.7162 0.7162 0.6979 -77.1948 498.9688)" class="st2" width="9.9" height="46.6"/>
<path class="st2" d="M566.5,354.3c-3.8,3.9-3.7,10.2,0.2,14c3.9,3.8,10.2,3.7,14-0.2c3.8-3.9,3.7-10.2-0.2-14
	C576.6,350.3,570.3,350.4,566.5,354.3z M576.6,364.1c-1.6,1.7-4.3,1.7-6,0.1c-1.7-1.6-1.7-4.3-0.1-6s4.3-1.7,6-0.1
	C578.2,359.8,578.3,362.5,576.6,364.1L576.6,364.1z"/>
<path class="st2" d="M529.5,307.9l4.7,4.7l-2.3,8.1l-8.3,2l-4.4-4.4c-0.8,6.6,3.9,12.6,10.5,13.3c6.6,0.8,12.6-3.9,13.3-10.5
	c0.8-6.6-3.9-12.6-10.5-13.3C531.5,307.8,530.5,307.8,529.5,307.9L529.5,307.9z"/>
<g>
	<path class="st3" d="M580.7,325.5V33.7c0-18.6-15.1-33.7-33.7-33.7H88.4C69.8,0,54.7,15.1,54.7,33.7v291.8
		c0,18.6,15.1,33.7,33.7,33.7h458.5C565.5,359.2,580.6,344.1,580.7,325.5z M88.4,355.3c-16.4,0-29.8-13.3-29.8-29.8V33.7
		C58.7,17.3,72,4,88.4,4h458.5c16.4,0,29.8,13.3,29.8,29.8v291.8c0,16.4-13.3,29.8-29.8,29.8L88.4,355.3z"/>
	<path class="st3" d="M576.7,52.5h-518c-1.1,0-2-0.9-2-2c0-1.1,0.9-2,2-2c0,0,0,0,0,0h518c1.1,0,2,0.9,2,2
		C578.7,51.6,577.8,52.5,576.7,52.5z"/>
	<circle class="st4" cx="92.4" cy="27.8" r="9.9"/>
	<circle class="st4" cx="126.1" cy="27.8" r="9.9"/>
	<circle class="st4" cx="159.9" cy="27.8" r="9.9"/>
	<path d="M234.1,266.1c-0.7,0-1.3-0.6-1.3-1.3c0,0,0,0,0,0c0-13.9-6.1-21.7-16-29.7c-0.6-0.5-0.7-1.3-0.2-1.9
		c0.5-0.6,1.3-0.7,1.9-0.2c0,0,0,0,0,0c10.5,8.5,16.9,16.8,16.9,31.8C235.4,265.5,234.8,266.1,234.1,266.1
		C234.1,266.1,234.1,266.1,234.1,266.1z"/>
	<path d="M119.6,266.1c-0.7,0-1.3-0.6-1.3-1.3c0,0,0,0,0,0c0-15,6.5-23.3,16.9-31.8c0.6-0.5,1.4-0.4,1.9,0.2
		c0.5,0.6,0.4,1.4-0.2,1.9c0,0,0,0,0,0c-9.8,8-16,15.8-16,29.7C121,265.5,120.4,266.1,119.6,266.1
		C119.6,266.1,119.6,266.1,119.6,266.1z"/>
	<path d="M222.6,174.6c-0.7,0-1.3-0.6-1.3-1.3c0-0.4,0.2-0.8,0.5-1c10.1-8.2,10.9-20,10.9-33.3c0-0.7,0.6-1.3,1.3-1.3
		c0.7,0,1.3,0.6,1.3,1.3c0,14-0.9,26.4-11.9,35.4C223.2,174.5,222.9,174.6,222.6,174.6z"/>
	<path d="M131.1,173.9c-0.3,0-0.6-0.1-0.8-0.3c-11-9-11.9-21-11.9-34.6c0-0.7,0.6-1.3,1.3-1.3c0.7,0,1.3,0.6,1.3,1.3
		c0,13.4,0.8,24.3,10.9,32.6c0.6,0.5,0.7,1.3,0.2,1.9C131.9,173.7,131.5,173.9,131.1,173.9L131.1,173.9z"/>
	<path d="M251.2,203.2h-28.6c-0.7,0-1.3-0.6-1.3-1.3s0.6-1.3,1.3-1.3h28.6c0.7,0,1.3,0.6,1.3,1.3S252,203.2,251.2,203.2z"/>
	<path d="M131.1,203.2h-28.6c-0.7,0-1.3-0.6-1.3-1.3s0.6-1.3,1.3-1.3h28.6c0.7,0,1.3,0.6,1.3,1.3S131.8,203.2,131.1,203.2z"/>
	<path d="M176.8,260.4c-0.7,0-1.3-0.6-1.3-1.3c0,0,0,0,0,0v-91.5c0-0.7,0.6-1.3,1.3-1.3s1.3,0.6,1.3,1.3V259
		C178.2,259.8,177.6,260.4,176.8,260.4C176.8,260.4,176.8,260.4,176.8,260.4z"/>
	<path d="M176.8,260.4c-26,0-47.1-21.1-47.1-47.1v-34.3c0-22,18-35.7,47.1-35.7c30.4,0,47.1,12.7,47.1,35.7v34.3
		C223.9,239.3,202.8,260.4,176.8,260.4z M176.8,145.9c-21.5,0-44.4,8.7-44.4,33v34.3c0,24.5,19.9,44.4,44.4,44.5
		c24.5,0,44.4-19.9,44.5-44.4c0,0,0,0,0-0.1v-34.3C221.3,150.2,193.4,145.9,176.8,145.9z"/>
	<path d="M149.5,151.5c-0.5,0-1-0.3-1.2-0.8c-0.8-1.9-1.2-4-1.3-6.1c0-16.5,13.4-29.8,29.9-29.9h0.2c16.5,0.1,29.8,13.4,29.9,29.9
		c-0.1,1.9-0.5,3.8-1.2,5.6c-0.3,0.7-1.1,1-1.7,0.7c-0.7-0.3-1-1.1-0.7-1.7c0.6-1.5,1-3.1,1-4.7c-0.1-15-12.2-27.1-27.2-27.1h-0.1
		c-15,0.1-27.1,12.2-27.2,27.2c0.1,1.8,0.5,3.5,1.1,5.1c0.3,0.7-0.1,1.5-0.7,1.7C149.8,151.5,149.6,151.5,149.5,151.5z"/>
	<path class="st5" d="M312.5,144.3h-16c-5.2,0-9.3-4.2-9.3-9.3s4.2-9.3,9.3-9.3h16c5.2,0,9.3,4.2,9.3,9.3S317.7,144.3,312.5,144.3z"
		/>
	<path class="st5" d="M422,183.7h-16c-5.2,0-9.3-4.2-9.3-9.3c0-5.2,4.2-9.3,9.3-9.3h16c5.2,0,9.3,4.2,9.3,9.3
		C431.4,179.5,427.2,183.7,422,183.7z"/>
	<path class="st5" d="M472.8,183.7h-16c-5.2,0-9.3-4.2-9.3-9.3c0-5.2,4.2-9.3,9.3-9.3h16c5.2,0,9.3,4.2,9.3,9.3
		C482.1,179.5,477.9,183.7,472.8,183.7z"/>
	<path class="st5" d="M523.5,183.7h-16c-5.2,0-9.3-4.2-9.3-9.3c0-5.2,4.2-9.3,9.3-9.3h16c5.2,0,9.3,4.2,9.3,9.3
		C532.9,179.5,528.7,183.7,523.5,183.7z"/>
	<path class="st5" d="M423.4,144.9h-74.8c-5.2,0-9.3-4.2-9.3-9.3c0-5.2,4.2-9.3,9.3-9.3h74.8c5.2,0,9.3,4.2,9.3,9.3
		C432.7,140.7,428.5,144.9,423.4,144.9z"/>
	<path class="st5" d="M371.3,182.3h-74.8c-5.2,0-9.3-4.2-9.3-9.3c0-5.2,4.2-9.3,9.3-9.3h74.8c5.2,0,9.3,4.2,9.3,9.3
		C380.6,178.1,376.4,182.3,371.3,182.3z"/>
	<path class="st5" d="M518.2,144.9h-57.4c-5.2,0-9.3-4.2-9.3-9.3c0-5.2,4.2-9.3,9.3-9.3h57.4c5.2,0,9.3,4.2,9.3,9.3
		C527.5,140.7,523.4,144.9,518.2,144.9z"/>
	<path class="st5" d="M312.5,223.1h-16c-5.2,0-9.3-4.2-9.3-9.3c0-5.2,4.2-9.3,9.3-9.3h16c5.2,0,9.3,4.2,9.3,9.3
		C321.8,218.9,317.7,223.1,312.5,223.1z"/>
	<path class="st5" d="M423.4,223.7h-74.8c-5.2,0-9.3-4.2-9.3-9.3c0-5.2,4.2-9.3,9.3-9.3h74.8c5.2,0,9.3,4.2,9.3,9.3
		C432.7,219.5,428.5,223.7,423.4,223.7z"/>
	<path class="st5" d="M518.2,223.7h-57.4c-5.2,0-9.3-4.2-9.3-9.3c0-5.2,4.2-9.3,9.3-9.3h57.4c5.2,0,9.3,4.2,9.3,9.3
		C527.5,219.5,523.4,223.7,518.2,223.7z"/>
	<path class="st5" d="M492.8,255.1c0-5.2,4.2-9.3,9.3-9.3h16c5.2,0,9.3,4.2,9.3,9.3c0,5.2-4.2,9.3-9.3,9.3h-16
		C497,264.5,492.8,260.3,492.8,255.1z"/>
	<path class="st5" d="M382,255.8c0-5.2,4.2-9.3,9.3-9.3h74.8c5.2,0,9.3,4.2,9.3,9.3s-4.2,9.3-9.3,9.3h-74.8
		C386.1,265.1,382,260.9,382,255.8z"/>
	<path class="st5" d="M287.1,255.8c0-5.2,4.2-9.3,9.3-9.3h57.4c5.2,0,9.3,4.2,9.3,9.3s-4.2,9.3-9.3,9.3h-57.4
		C291.3,265.1,287.1,260.9,287.1,255.8z"/>
</g>
</svg>
